<?xml version="1.0" encoding="utf-8"?>
<!-- Generator: Adobe Illustrator 27.9.1, SVG Export Plug-In . SVG Version: 6.00 Build 0)  -->
<svg version="1.1" id="레이어_1" xmlns="http://www.w3.org/2000/svg" xmlns:xlink="http://www.w3.org/1999/xlink" x="0px"
	 y="0px" viewBox="0 0 800 300" style="enable-background:new 0 0 800 300;" xml:space="preserve">
<style type="text/css">
	.st0{fill:#FFFFFF;}
	.st1{fill:#FAFCFB;}
	.st2{fill:#9DC6AF;}
	.st3{fill:#C9D3CD;}
	.st4{fill:#0F0F0F;}
	.st5{fill:#141414;}
</style>
<g>
	<path class="st0" d="M96.2,160.6v-16.65H77.84v16.65h-3.88v-35.69h3.88v15.53H96.2v-15.53h3.88v35.69H96.2z"/>
	<path class="st0" d="M150.33,160.6l-5-12.17H128.9l-5.45,12.17h-4.33l16.28-35.69h4.4l14.78,35.69H150.33z M137.49,129.01
		l-7.17,16.13h13.66L137.49,129.01z"/>
	<path class="st0" d="M174.44,160.6v-35.69h3.88v35.69H174.44z"/>
	<path class="st0" d="M202.59,160.6v-35.69h3.88v32.33h16.35v3.36H202.59z"/>
	<path class="st0" d="M242.9,160.6v-35.69h22.03v3.43h-18.14v12.1h16.5v3.51h-16.5v13.29h18.14v3.36H242.9z"/>
	<path class="st0" d="M297.92,144.02v16.58h-3.88v-16.43l-12.77-19.26h4.26l10.45,15.68l10.53-15.68h4.33L297.92,144.02z"/>
	<path class="st0" d="M528.13,160.45h-4.11l-9.18-29.27l-9.11,29.27h-4.11l-11.2-35.69h3.88l9.41,30.09l9.41-30.09h3.58l9.41,30.09
		l9.26-30.09h4.03L528.13,160.45z"/>
	<path class="st0" d="M573.37,161.42c-11.13,0-16.8-7.39-16.8-18.67c0-11.42,5.67-18.74,16.8-18.74c11.2,0,16.95,7.32,16.95,18.74
		C590.32,154.03,584.57,161.42,573.37,161.42z M573.37,127.3c-9.03,0-12.84,6.2-12.84,15.38c0,9.04,3.81,15.23,12.84,15.23
		c9.18,0,13.07-6.2,13.07-15.23C586.44,133.49,582.56,127.3,573.37,127.3z"/>
	<path class="st0" d="M632.35,160.45l-15.75-20.38h5.97c6.57,0,9.26-1.42,9.26-6.35c0-3.88-2.84-5.53-8.06-5.53h-7.92v32.26h-3.88
		v-35.69h11.57c8.07,0,12.02,3.06,12.02,9.04c0,7.02-4.78,9.63-11.42,9.63h-0.52l13.29,17.02H632.35z"/>
	<path class="st0" d="M656.91,160.45v-35.69h3.88v32.33h16.35v3.36H656.91z"/>
	<path class="st0" d="M707.31,160.45h-10.08v-35.69h11.05c11.27,0,17.77,5.97,17.77,17.17
		C726.05,155.89,717.69,160.45,707.31,160.45z M707.76,128.19h-6.65v28.9h4.71c10.75,0,16.35-3.36,16.35-15.16
		C722.16,133.12,718.13,128.19,707.76,128.19z"/>
</g>
<path class="st1" d="M461.37,154.55H342.41V88.7c0-4.72,3.83-8.56,8.56-8.56h101.86c4.72,0,8.56,3.83,8.56,8.56v65.85H461.37z"/>
<path class="st0" d="M461.37,156.38H342.41c-1.01,0-1.83-0.82-1.83-1.83V88.7c0-5.72,4.65-10.39,10.39-10.39h101.86
	c5.72,0,10.39,4.65,10.39,10.39v65.85C463.2,155.56,462.39,156.38,461.37,156.38z M344.24,152.71h115.3V88.7
	c0-3.71-3.02-6.72-6.72-6.72H350.96c-3.71,0-6.72,3.02-6.72,6.72V152.71L344.24,152.71z"/>
<path class="st2" d="M452.81,169.04H350.96c-4.72,0-8.56-3.83-8.56-8.56v-7.05h118.96v7.05
	C461.37,165.22,457.54,169.04,452.81,169.04L452.81,169.04z"/>
<path class="st0" d="M452.81,170.87H350.96c-5.72,0-10.39-4.65-10.39-10.39v-8.88H463.2v8.88
	C463.2,166.22,458.55,170.87,452.81,170.87L452.81,170.87z M344.24,155.28v5.22c0,3.71,3.02,6.72,6.72,6.72h101.86
	c3.71,0,6.72-3.02,6.72-6.72v-5.22H344.24L344.24,155.28z"/>
<path class="st1" d="M398.16,160.31c0,2.06,1.67,3.74,3.74,3.74c2.06,0,3.74-1.67,3.74-3.74c0-2.06-1.67-3.74-3.74-3.74
	S398.16,158.25,398.16,160.31L398.16,160.31z"/>
<path class="st1" d="M364.34,111.41c0,7.98,6.47,14.45,14.45,14.45c7.98,0,14.45-6.47,14.45-14.45s-6.47-14.45-14.45-14.45
	C370.81,96.96,364.34,103.43,364.34,111.41z"/>
<path class="st3" d="M378.79,127.69c-8.98,0-16.28-7.3-16.28-16.28s7.3-16.28,16.28-16.28s16.28,7.3,16.28,16.28
	S387.79,127.69,378.79,127.69z M378.79,98.78c-6.96,0-12.62,5.67-12.62,12.62c0,6.95,5.67,12.62,12.62,12.62s12.62-5.67,12.62-12.62
	C391.41,104.45,385.76,98.78,378.79,98.78z"/>
<path class="st4" d="M374.8,111.41c0,2.2,1.79,3.99,3.99,3.99s3.99-1.79,3.99-3.99c0-2.2-1.79-3.99-3.99-3.99
	S374.8,109.21,374.8,111.41z"/>
<path class="st1" d="M410.54,111.41c0,7.98,6.47,14.45,14.45,14.45c7.98,0,14.45-6.47,14.45-14.45s-6.47-14.45-14.45-14.45
	C417.01,96.96,410.54,103.43,410.54,111.41z"/>
<path class="st3" d="M424.99,127.69c-8.98,0-16.28-7.3-16.28-16.28s7.3-16.28,16.28-16.28s16.28,7.3,16.28,16.28
	S433.97,127.69,424.99,127.69z M424.99,98.78c-6.96,0-12.62,5.67-12.62,12.62c0,6.95,5.67,12.62,12.62,12.62s12.62-5.67,12.62-12.62
	C437.6,104.45,431.94,98.78,424.99,98.78z"/>
<path class="st4" d="M421,111.41c0,2.2,1.78,3.99,3.99,3.99s3.99-1.78,3.99-3.99c0,0,0,0,0-0.01c0-2.2-1.78-3.99-3.99-3.99
	C422.79,107.41,421,109.2,421,111.41C421,111.4,421,111.41,421,111.41z"/>
<path class="st1" d="M409.16,127.23c0,3.99-3.27,7.26-7.26,7.26s-7.26-3.27-7.26-7.26"/>
<path class="st5" d="M401.9,136.33c-5.02,0-9.09-4.09-9.09-9.09c0-1.01,0.82-1.83,1.83-1.83s1.83,0.82,1.83,1.83
	c0,3,2.44,5.43,5.43,5.43c3,0,5.43-2.44,5.43-5.43c0-1.01,0.82-1.83,1.83-1.83s1.83,0.82,1.83,1.83
	C410.99,132.24,406.9,136.33,401.9,136.33L401.9,136.33z"/>
<path class="st1" d="M389.8,169.04h24.18v12.63H389.8V169.04z"/>
<path class="st0" d="M413.98,183.5H389.8c-1.01,0-1.83-0.82-1.83-1.83v-12.63c0-1.01,0.82-1.83,1.83-1.83h24.18
	c1.01,0,1.83,0.82,1.83,1.83v12.63C415.81,182.68,414.99,183.5,413.98,183.5z M391.63,179.84h20.51v-8.97h-20.51V179.84
	L391.63,179.84z"/>
<path class="st1" d="M424.16,188.31h-44.53c-2.65,0-4.82-2.17-4.82-4.82c0-2.65,2.17-4.82,4.82-4.82h44.52
	c2.65,0,4.82,2.17,4.82,4.82C428.96,186.15,426.81,188.31,424.16,188.31z"/>
<path class="st0" d="M424.16,190.14h-44.53c-3.67,0-6.65-2.99-6.65-6.65c0-3.67,2.99-6.65,6.65-6.65h44.52
	c3.67,0,6.65,2.99,6.65,6.65C430.8,187.15,427.82,190.14,424.16,190.14z M379.62,180.51c-1.65,0-2.99,1.34-2.99,2.99
	c0,1.65,1.34,2.99,2.99,2.99h44.52c1.65,0,2.99-1.34,2.99-2.99c0-1.65-1.34-2.99-2.99-2.99H379.62z"/>
</svg>
