<?xml version="1.0" encoding="UTF-8"?>
<svg id="_레이어_1" data-name="레이어 1" xmlns="http://www.w3.org/2000/svg" viewBox="0 0 652.09 111.83">
  <defs>
    <style>
      .cls-1, .cls-2, .cls-3, .cls-4, .cls-5, .cls-6, .cls-7 {
        stroke-width: 0px;
      }

      .cls-2 {
        fill: #191919;
      }

      .cls-3 {
        fill: #0f0f0f;
      }

      .cls-4 {
        fill: #141414;
      }

      .cls-5 {
        fill: #c9d3cd;
      }

      .cls-6 {
        fill: #9dc6af;
      }

      .cls-7 {
        fill: #fafcfb;
      }
    </style>
  </defs>
  <g>
    <path class="cls-1" d="m22.25,82.29v-16.65H3.88v16.65H0v-35.69h3.88v15.53h18.37v-15.53h3.88v35.69h-3.88Z"/>
    <path class="cls-1" d="m76.38,82.29l-5-12.17h-16.43l-5.45,12.17h-4.33l16.28-35.69h4.4l14.78,35.69h-4.26Zm-12.84-31.58l-7.17,16.13h13.66l-6.5-16.13Z"/>
    <path class="cls-1" d="m100.49,82.29v-35.69h3.88v35.69h-3.88Z"/>
    <path class="cls-1" d="m128.63,82.29v-35.69h3.88v32.33h16.35v3.36h-20.23Z"/>
    <path class="cls-1" d="m168.95,82.29v-35.69h22.03v3.43h-18.14v12.1h16.5v3.51h-16.5v13.29h18.14v3.36h-22.03Z"/>
    <path class="cls-1" d="m223.97,65.71v16.58h-3.88v-16.43l-12.77-19.26h4.26l10.45,15.68,10.53-15.68h4.33l-12.92,19.11Z"/>
    <path class="cls-1" d="m454.18,82.14h-4.11l-9.18-29.27-9.11,29.27h-4.11l-11.2-35.69h3.88l9.41,30.09,9.41-30.09h3.58l9.41,30.09,9.26-30.09h4.03l-11.27,35.69Z"/>
    <path class="cls-1" d="m499.42,83.11c-11.13,0-16.8-7.39-16.8-18.67s5.67-18.74,16.8-18.74,16.95,7.32,16.95,18.74-5.75,18.67-16.95,18.67Zm0-34.12c-9.03,0-12.84,6.2-12.84,15.38s3.81,15.23,12.84,15.23,13.06-6.2,13.06-15.23-3.88-15.38-13.06-15.38Z"/>
    <path class="cls-1" d="m558.4,82.14l-15.75-20.38h5.97c6.57,0,9.26-1.42,9.26-6.35,0-3.88-2.84-5.53-8.06-5.53h-7.92v32.26h-3.88v-35.69h11.57c8.07,0,12.02,3.06,12.02,9.04,0,7.02-4.78,9.63-11.42,9.63h-.52l13.29,17.02h-4.55Z"/>
    <path class="cls-1" d="m582.96,82.14v-35.69h3.88v32.33h16.35v3.36h-20.23Z"/>
    <path class="cls-1" d="m633.35,82.14h-10.08v-35.69h11.05c11.27,0,17.77,5.97,17.77,17.17,0,13.96-8.36,18.52-18.74,18.52Zm.45-32.26h-6.65v28.9h4.71c10.75,0,16.35-3.36,16.35-15.16,0-8.81-4.03-13.74-14.41-13.74Z"/>
  </g>
  <path class="cls-7" d="m387.42,76.24h-118.96V10.39c0-4.72,3.83-8.56,8.56-8.56h101.86c4.72,0,8.56,3.83,8.56,8.56v65.85h-.01Z"/>
  <path class="cls-3" d="m387.42,78.07h-118.96c-1.01,0-1.83-.82-1.83-1.83V10.39c0-5.72,4.65-10.39,10.39-10.39h101.86c5.72,0,10.39,4.65,10.39,10.39v65.85c-.01,1.01-.83,1.83-1.85,1.83Zm-117.13-3.67h115.3V10.39c0-3.71-3.02-6.72-6.72-6.72h-101.85c-3.71,0-6.72,3.02-6.72,6.72v64.01h0Z"/>
  <path class="cls-6" d="m378.86,90.73h-101.85c-4.72,0-8.56-3.83-8.56-8.56v-7.05h118.96v7.05c0,4.74-3.83,8.56-8.56,8.56h0Z"/>
  <path class="cls-2" d="m378.86,92.56h-101.85c-5.72,0-10.39-4.65-10.39-10.39v-8.88h122.63v8.88c0,5.74-4.65,10.39-10.39,10.39h0Zm-108.57-15.59v5.22c0,3.71,3.02,6.72,6.72,6.72h101.86c3.71,0,6.72-3.02,6.72-6.72v-5.22h-115.31,0Z"/>
  <path class="cls-7" d="m324.21,82c0,2.06,1.67,3.74,3.74,3.74s3.74-1.67,3.74-3.74-1.67-3.74-3.74-3.74-3.74,1.67-3.74,3.74h0Z"/>
  <path class="cls-7" d="m290.39,33.1c0,7.98,6.47,14.45,14.45,14.45s14.45-6.47,14.45-14.45-6.47-14.45-14.45-14.45-14.45,6.47-14.45,14.45Z"/>
  <path class="cls-5" d="m304.84,49.38c-8.98,0-16.28-7.3-16.28-16.28s7.3-16.28,16.28-16.28,16.28,7.3,16.28,16.28-7.29,16.28-16.28,16.28Zm0-28.91c-6.96,0-12.62,5.67-12.62,12.62s5.67,12.62,12.62,12.62,12.62-5.67,12.62-12.62-5.65-12.62-12.62-12.62Z"/>
  <path class="cls-3" d="m300.85,33.1c0,2.2,1.79,3.99,3.99,3.99s3.99-1.79,3.99-3.99-1.79-3.99-3.99-3.99-3.99,1.79-3.99,3.99Z"/>
  <path class="cls-7" d="m336.58,33.1c0,7.98,6.47,14.45,14.45,14.45s14.45-6.47,14.45-14.45-6.47-14.45-14.45-14.45-14.45,6.47-14.45,14.45Z"/>
  <path class="cls-5" d="m351.03,49.38c-8.98,0-16.28-7.3-16.28-16.28s7.3-16.28,16.28-16.28,16.28,7.3,16.28,16.28-7.3,16.28-16.28,16.28Zm0-28.91c-6.96,0-12.62,5.67-12.62,12.62s5.67,12.62,12.62,12.62,12.62-5.67,12.62-12.62-5.67-12.62-12.62-12.62Z"/>
  <path class="cls-3" d="m347.04,33.1c0,2.2,1.78,3.99,3.99,3.99,2.2,0,3.99-1.78,3.99-3.99h0c0-2.21-1.78-4-3.99-4-2.2,0-3.99,1.78-3.99,3.99h0Z"/>
  <path class="cls-7" d="m335.2,48.92c0,3.99-3.27,7.26-7.26,7.26s-7.26-3.27-7.26-7.26"/>
  <path class="cls-4" d="m327.94,58.02c-5.02,0-9.09-4.09-9.09-9.09,0-1.01.82-1.83,1.83-1.83s1.83.82,1.83,1.83c0,3,2.44,5.43,5.43,5.43s5.43-2.44,5.43-5.43c0-1.01.82-1.83,1.83-1.83s1.83.82,1.83,1.83c0,5-4.09,9.09-9.09,9.09h0Z"/>
  <path class="cls-7" d="m315.85,90.73h24.18v12.63h-24.18v-12.63Z"/>
  <path class="cls-4" d="m340.02,105.19h-24.18c-1.01,0-1.83-.82-1.83-1.83v-12.63c0-1.01.82-1.83,1.83-1.83h24.18c1.01,0,1.83.82,1.83,1.83v12.63c0,1.01-.82,1.83-1.83,1.83Zm-22.34-3.67h20.51v-8.97h-20.51v8.97h0Z"/>
  <path class="cls-7" d="m350.2,110h-44.53c-2.65,0-4.82-2.17-4.82-4.82s2.17-4.82,4.82-4.82h44.52c2.65,0,4.82,2.17,4.82,4.82s-2.16,4.82-4.81,4.82Z"/>
  <path class="cls-4" d="m350.2,111.83h-44.53c-3.67,0-6.65-2.99-6.65-6.65s2.99-6.65,6.65-6.65h44.52c3.67,0,6.65,2.99,6.65,6.65s-2.97,6.65-6.64,6.65Zm-44.53-9.63c-1.65,0-2.99,1.34-2.99,2.99s1.34,2.99,2.99,2.99h44.52c1.65,0,2.99-1.34,2.99-2.99s-1.34-2.99-2.99-2.99h-44.52Z"/>
</svg>